# xmcd
#
# Track frame offsets:
#	150
#	8850
#	19186
#	31470
#	42880
#	54102
#	64424
#	75334
#	84181
#	91203
#	101763
#	112609
#	125647
#	133717
#	145699
#	155509
#
# Disc length: 2187 seconds
#
# Revision: 0
# Processed by: cddbd v1.5PL3 Copyright (c) Steve Scherf et al.
# Submitted via: dBpowerAMP V4.0
#
DISCID=be088910
DTITLE=Waylon Jennings - Country Legends
DYEAR=2003
DGENRE=Country
TTITLE0=Abillene
TTITLE1=Lorena
TTITLE2=Don't Think Twice, It's All Right
TTITLE3=Sally Was A Good old Girl
TTITLE4=Big Mamou
TTITLE5=Money (That's What I Want)
TTITLE6=Burning Memories
TTITLE7=Love's Gonna Live Here
TTITLE8=It's So Easy
TTITLE9=White Lightning
TTITLE10=Dream Baby (How Long Must I Dram)
TTITLE11=Love Of The Common People
TTITLE12=I Didn't Realize
TTITLE13=Crying
TTITLE14=When Sin Stops Love Begins
TTITLE15=Jolie Blond
EXTD=
EXTT0=
EXTT1=
EXTT2=
EXTT3=
EXTT4=
EXTT5=
EXTT6=
EXTT7=
EXTT8=
EXTT9=
EXTT10=
EXTT11=
EXTT12=
EXTT13=
EXTT14=
EXTT15=
PLAYORDER=
